<?xml version="1.0" encoding="utf-8"?>
<!-- Generator: Adobe Illustrator 25.1.0, SVG Export Plug-In . SVG Version: 6.00 Build 0)  -->
<svg version="1.1" id="Layer_1" xmlns="http://www.w3.org/2000/svg" xmlns:xlink="http://www.w3.org/1999/xlink" x="0px" y="0px"
	 viewBox="0 0 2061 2500" style="enable-background:new 0 0 2061 2500;" xml:space="preserve">
<style type="text/css">
	.st0{fill:#FFFFFF;}
	.st1{fill:#84CEEB;}
</style>
<path class="st0" d="M162.3,352.9C71,362,2.1,439.9,2.1,531.6L0,1211.2C-1.3,1644.5,217,2049.7,580.9,2285
	c120.3,77.8,265.3,151.3,440.3,215c0,0,774.6-219.4,987.4-830.5c0,0,0.9-2.3,2.4-6.4c33.1-88.1,50-181.4,50-275.4l-0.2-852.9
	c0-68.1-41.5-129.8-105.1-153.9c-28.7-10.9-65-18.5-111-20c0,0-512.3-46.1-777.9-348.5c0,0-34-27.8-64.8,0
	c0,0-305.5,336.5-817.8,339.7C176.8,351.8,169.5,352,162.3,352.9L162.3,352.9z"/>
<path class="st1" d="M1567.1,1404.2c0,0-30.8-172.8-259.4-231.4c0,0,226.8-106.7,196.2-335.5c-11.7-87.2-59.6-165.6-131-216.9
	c-50.4-36.3-121.6-69.6-213.5-71l-660.5,0.2v179h123.5l0.3,963c0,0-33.9,43.2-123.4,49.4V1889l670.2-0.2
	c34.2,0.1,68.1-5.1,100.7-15.4C1386.4,1836.6,1619.7,1712.8,1567.1,1404.2L1567.1,1404.2z M872.5,753.1h225.8
	c17-0.1,33.9,2.1,50.3,6.6c118.5,33.5,115.9,163.1,115.9,163.1c0,85.3-46.2,128.9-88.5,150.9c-28.5,14.6-60.1,22.1-92.2,21.9H872.6
	L872.5,753.1z M1311,1494.7c0,100-54.1,151.2-103.8,177.1c-33.3,17.4-70.5,25.7-108.1,25.7H851.2l-0.1-401.9l264.9-0.1
	c19.9-0.2,39.8,2.4,59,7.7C1314,1342.5,1311,1494.7,1311,1494.7L1311,1494.7z"/>
</svg>
